<?xml version="1.0" standalone="no"?>
<!DOCTYPE svg PUBLIC "-//W3C//DTD SVG 20010904//EN"
 "http://www.w3.org/TR/2001/REC-SVG-20010904/DTD/svg10.dtd">
<svg version="1.0" xmlns="http://www.w3.org/2000/svg"
 width="300.000000pt" height="300.000000pt" viewBox="0 0 300.000000 300.000000"
 preserveAspectRatio="xMidYMid meet">

<g transform="translate(0.000000,300.000000) scale(0.100000,-0.100000)"
fill="#000000" stroke="none">
<path d="M305 2860 c10 -11 20 -20 23 -20 3 0 -3 9 -13 20 -10 11 -20 20 -23
20 -3 0 3 -9 13 -20z"/>
<path d="M356 2800 c12 -14 77 -92 144 -175 68 -82 127 -149 132 -147 5 1 7
-1 4 -6 -3 -5 87 -121 199 -258 218 -266 230 -287 180 -320 -33 -21 -97 -29
-125 -14 -12 6 -74 92 -138 190 -170 259 -169 259 -18 -13 42 -76 79 -151 82
-165 4 -20 -2 -37 -25 -65 -21 -27 -35 -61 -46 -115 -31 -148 -37 -167 -67
-222 -17 -30 -62 -94 -100 -142 -84 -106 -98 -138 -98 -227 0 -85 17 -140 76
-235 24 -41 44 -80 44 -89 0 -13 8 -13 68 2 127 33 226 91 257 152 19 37 19
99 -1 127 -8 12 -47 47 -85 78 -125 99 -135 145 -68 302 28 67 45 126 54 191
15 105 29 128 84 137 74 12 133 37 167 70 28 29 34 42 34 79 0 44 -2 47 -247
317 -344 381 -581 637 -507 548z m277 -1658 c23 -20 22 -43 -3 -70 -25 -26
-33 -27 -54 -6 -12 11 -13 20 -6 34 7 13 7 21 0 25 -16 10 -12 33 8 38 19 4
30 0 55 -21z"/>
<path d="M1073 2423 c4 -3 10 -3 14 0 3 4 0 7 -7 7 -7 0 -10 -3 -7 -7z"/>
<path d="M1137 2406 c95 -30 167 -92 300 -259 52 -65 112 -135 135 -157 83
-77 177 -111 353 -125 84 -7 88 -7 72 9 -21 21 -21 16 -1 77 12 35 14 65 9
104 l-6 55 -82 39 c-119 57 -214 75 -356 68 l-115 -6 -54 55 c-29 29 -73 68
-98 85 -50 34 -141 69 -176 68 -15 0 -9 -5 19 -13z"/>
<path d="M1029 2343 c-11 -139 62 -298 167 -359 38 -22 100 -33 92 -16 -2 4
-15 30 -29 57 -14 28 -34 84 -44 125 -29 123 -57 165 -128 195 -47 19 -57 19
-58 -2z"/>
<path d="M2031 2263 c-1 -60 -11 -65 -74 -38 -57 24 -57 17 1 -16 60 -34 92
-78 93 -129 0 -19 4 -44 9 -55 6 -14 9 -4 9 38 1 66 8 69 66 30 38 -25 37 -23
-17 34 -53 57 -68 85 -81 163 -2 14 -5 1 -6 -27z"/>
<path d="M2051 1984 c0 -11 3 -14 6 -6 3 7 2 16 -1 19 -3 4 -6 -2 -5 -13z"/>
<path d="M2100 1957 c-7 -26 -23 -58 -36 -72 -29 -32 -29 -30 -1 -32 56 -4
113 -29 148 -64 l37 -37 -19 56 c-21 60 -54 119 -92 166 l-24 29 -13 -46z"/>
<path d="M1613 1816 c15 -144 100 -218 397 -342 231 -96 296 -147 318 -250 l9
-39 18 40 c15 31 19 64 20 150 0 101 -2 114 -27 162 -72 136 -179 195 -436
238 -175 30 -199 36 -259 70 l-46 25 6 -54z"/>
<path d="M1141 1754 c-53 -37 -61 -127 -13 -145 57 -22 172 26 172 72 0 20
-46 79 -62 79 -5 0 -2 -7 7 -16 20 -20 15 -35 -16 -53 -32 -18 -76 -8 -84 20
-9 26 4 39 47 49 l33 8 -30 1 c-17 1 -41 -6 -54 -15z"/>
<path d="M1775 1412 c0 -84 -2 -93 -30 -133 -45 -63 -110 -94 -249 -119 -110
-20 -233 -56 -223 -66 2 -2 28 0 58 5 30 5 95 12 144 16 50 3 110 11 135 16
84 19 167 83 192 148 15 41 11 136 -9 182 l-18 41 0 -90z"/>
<path d="M1875 1440 c-4 -6 -6 -38 -6 -71 0 -74 28 -139 126 -289 102 -157
119 -194 123 -275 3 -49 -1 -82 -12 -108 -18 -45 -11 -46 41 -8 49 36 97 95
126 158 30 66 32 236 3 300 -10 24 -23 40 -29 36 -6 -3 -7 -1 -3 5 17 28 -89
114 -261 210 -102 57 -99 56 -108 42z"/>
<path d="M1197 980 c-62 -16 -178 -74 -240 -121 l-58 -43 64 -12 c87 -16 115
-33 208 -119 66 -62 85 -75 124 -81 29 -4 56 -2 76 7 35 14 69 62 69 97 0 46
-37 91 -75 91 -15 1 -12 -3 12 -15 59 -29 52 -113 -11 -139 -81 -34 -169 54
-137 138 23 61 117 85 190 48 54 -28 93 -77 140 -175 49 -106 82 -149 126
-170 41 -20 122 -20 155 -1 24 14 23 15 -25 10 -58 -7 -106 13 -138 56 -11 16
-29 75 -42 141 -33 165 -65 218 -165 269 -36 19 -63 24 -140 26 -52 1 -112 -2
-133 -7z"/>
<path d="M1313 793 c4 -3 10 -3 14 0 3 4 0 7 -7 7 -7 0 -10 -3 -7 -7z"/>
</g>
</svg>
